<svg enable-background="new 0 0 1034 447" version="1.1" viewBox="0 0 1034 447" xmlns="http://www.w3.org/2000/svg">
<style type="text/css">
	.st0{font-family:'Rubik-Medium';}
	.st1{font-size:28px;}
	.st2{fill:#FF0000;}
	.st3{font-family:'Rubik-Regular';}
	.st4{font-size:16px;}
	.st5{fill:#E6E6E6;stroke:#000000;stroke-miterlimit:10;}
	.st6{font-size:14px;}
	.st7{fill:none;stroke:#FF0000;stroke-width:2;stroke-miterlimit:10;}
	.st8{fill:#F2F2F2;stroke:#000000;stroke-miterlimit:10;}
	.st9{opacity:0.5;}
	.st10{fill:#B3B3B3;stroke:#000000;stroke-miterlimit:10;}
	.st11{fill:#999999;}
	.st12{fill:none;stroke:#000000;stroke-linecap:round;stroke-linejoin:round;stroke-miterlimit:10;}
	.st13{fill:#808080;stroke:#000000;stroke-linecap:round;stroke-linejoin:round;stroke-miterlimit:10;}
	.st14{fill:#CCCCCC;stroke:#000000;stroke-miterlimit:10;}
	.st15{fill:#808080;stroke:#000000;stroke-miterlimit:10;}
	.st16{fill:none;stroke:#000000;stroke-miterlimit:10;}
	.st17{fill:#FFFFFF;stroke:#000000;stroke-miterlimit:10;}
	.st18{fill:#750C0C;stroke:#000000;stroke-miterlimit:10;}
	.st19{fill:#2C78FF;}
	.st20{fill:#F7931E;stroke:#000000;stroke-miterlimit:10;}
	.st21{fill:#BDEEFF;}
	.st22{fill:none;stroke:#29ABE2;stroke-width:2;stroke-miterlimit:10;}
	.st23{fill:#29ABE2;}
	.st24{fill:none;stroke:#0049FF;stroke-width:2;stroke-miterlimit:10;}
	.st25{fill:#0049FF;}
	.st26{fill:none;stroke:#000000;stroke-width:2;stroke-miterlimit:10;}
	.st27{fill:#808080;}
	.st28{fill:#E6E6E6;stroke:#666666;stroke-width:0.5;stroke-miterlimit:10;}
	.st29{fill:#4D4D4D;stroke:#000000;stroke-miterlimit:10;}
	.st30{fill:#666666;stroke:#000000;stroke-width:0.5;stroke-miterlimit:10;}
</style>
<text class="st0 st1" transform="translate(18.982 42.996)">Manufacturing Process</text>
<text class="st2 st3 st4" transform="translate(19.652 68.164)"></text>

	<rect class="st5" x="39.91" y="414.75" width="93.56" height="9.71"/>
	<path class="st5" d="m133.47 344.44h-93.56v-11.63l9.74-4.57c23.46-11.01 50.61-11.01 74.07 0l9.74 4.57v11.63z"/>
	<rect class="st5" x="43.19" y="344.44" width="86.26" height="70.3"/>
	<text class="st3 st6" transform="translate(52.439 383.36)">Petroleum</text>

<text class="st3 st6" transform="translate(194.68 206.82)">Pump</text>
<path class="st5" d="m877.3 249.34c-2.06-8.35-2.06-17 0-25.35h58.53c2.06 8.35 2.06 17 0 25.35h-58.53z"/>

	<polygon class="st5" points="213.78 150.01 224.64 161.66 213.78 173.31 225.97 173.31 225.97 150.01"/>
	<path class="st5" d="m226.26 174.96c3.55-3.33 5.77-8.05 5.77-13.3 0-10.08-8.17-18.25-18.25-18.25s-18.25 8.17-18.25 18.25c0 5.25 2.23 9.97 5.77 13.29v7.63l-3.59 2.1v2.94h32.14v-2.94l-3.59-2.1v-7.62zm-12.48-1.65c-6.43 0-11.65-5.21-11.65-11.65 0-6.43 5.21-11.65 11.65-11.65 6.43 0 11.65 5.21 11.65 11.65-0.01 6.43-5.22 11.65-11.65 11.65z"/>


	
		<polyline class="st7" points="412.92 266.11 412.92 80.33 573.33 80.33"/>
		
			<polygon class="st2" points="571.58 86.32 581.94 80.33 571.58 74.35"/>
		
	


	
		<polyline class="st7" points="841.73 59.33 782.43 59.33 782.43 350.75 650.62 350.75 650.62 338.25"/>
		
			<polygon class="st2" points="839.98 53.35 850.34 59.33 839.98 65.32"/>
		
	


	
		<line class="st7" x1="650.62" x2="650.62" y1="242.03" y2="266.96"/>
		
			<polygon class="st2" points="644.64 265.21 650.62 275.57 656.6 265.21"/>
		
	


	
		<line class="st7" x1="900.21" x2="900.21" y1="165.03" y2="208.91"/>
		
			<polygon class="st2" points="894.23 207.16 900.21 217.52 906.19 207.16"/>
		
	


	
		<line class="st7" x1="900.21" x2="900.21" y1="255.79" y2="289.63"/>
		
			<polygon class="st2" points="894.23 287.88 900.21 298.24 906.19 287.88"/>
		
	


	<polygon class="st8" points="655.5 321.83 645.72 321.83 630.9 285.34 630.9 281.5 670.32 281.5 670.32 285.34"/>
	<rect class="st8" x="630.9" y="281.5" width="39.42" height="3.38"/>
	<g class="st9">
		<rect class="st10" x="649.24" y="284.88" width="3.02" height="28.23"/>
		<polygon class="st11" points="649.63 304.84 660.03 300.51 652.8 298.24 652.79 301.1"/>
		<polygon class="st11" points="652.14 304.14 649.24 310.22 644.28 307.34"/>
		<line class="st12" x1="650.1" x2="652.26" y1="304.81" y2="301.1"/>
		<polyline class="st12" points="652.27 298.05 660.19 300.44 650.73 304.54 644.28 307.34 649.24 310.22 652.26 303.88"/>
		<polygon class="st11" points="651.15 290.34 664.81 286.36 652.27 286.36"/>
		<polygon class="st11" points="650.61 290.73 639.3 293.83 648.94 296.76"/>
		<polyline class="st12" points="652.27 286.36 664.86 286.36 650.76 290.45 638.7 293.86 649.24 297.09 652.27 286.36"/>
		<polygon class="st13" points="652.27 311.33 655.05 313.11 652.27 313.11"/>
	</g>

<circle class="st14" cx="639.67" cy="321.83" r="9.42"/>
<circle class="st14" cx="661.55" cy="321.83" r="9.42"/>
<circle class="st15" cx="639.67" cy="321.83" r="3.04"/>
<path class="st5" d="m427.61 224.26c-9.68 2.09-19.7 2.09-29.39 0v-59.59c9.68-2.09 19.7-2.09 29.39 0v59.59z"/>
<circle class="st15" cx="661.55" cy="321.83" r="3.04"/>
<polyline class="st16" points="420.76 171.56 405.08 179.53 420.76 186.83 405.08 194.8 420.76 202.1 405.08 210.07 420.76 217.37"/>
<circle class="st5" cx="650.62" cy="216.85" r="11.32"/>
<rect class="st5" x="618.39" y="225.97" width="64.45" height="10.14"/>
<rect class="st5" x="618.39" y="196.69" width="64.45" height="10.14"/>

	<line class="st16" x1="650.62" x2="642.39" y1="216.85" y2="208.62"/>
	<line class="st16" x1="658.85" x2="650.62" y1="225.08" y2="216.85"/>
	<line class="st16" x1="650.62" x2="658.85" y1="216.85" y2="208.62"/>
	<line class="st16" x1="642.39" x2="650.62" y1="225.08" y2="216.85"/>

<polygon class="st5" points="659.54 56.74 659.54 46.4 641.7 46.4 641.7 56.74 615.12 56.74 615.12 69.11 686.12 69.11 686.12 56.74"/>
<polygon class="st5" points="602.82 69.11 602.82 75.59 590.63 75.59 590.63 85.01 602.82 85.01 602.82 154.9 626.86 196.69 650.62 196.69 674.38 196.69 698.42 154.9 698.42 69.11"/>
<rect class="st5" x="882.93" y="149.32" width="49.92" height="7.85"/>
<polygon class="st5" points="914.8 40.93 914.8 32.93 900.99 32.93 900.99 40.93 880.4 40.93 880.4 50.51 935.39 50.51 935.39 40.93"/>
<polygon class="st5" points="870.87 50.51 870.87 55.53 861.43 55.53 861.43 62.83 870.87 62.83 870.87 116.96 889.49 149.32 907.89 149.32 926.29 149.32 944.91 116.96 944.91 50.51"/>
<line class="st16" x1="883.36" x2="929.77" y1="237.12" y2="237.12"/>

	<line class="st16" x1="887.51" x2="887.51" y1="244.47" y2="229.78"/>
	<line class="st16" x1="893.86" x2="893.86" y1="244.47" y2="229.78"/>
	<line class="st16" x1="900.21" x2="900.21" y1="244.47" y2="229.78"/>
	<line class="st16" x1="906.56" x2="906.56" y1="244.47" y2="229.78"/>
	<line class="st16" x1="912.91" x2="912.91" y1="244.47" y2="229.78"/>
	<line class="st16" x1="919.26" x2="919.26" y1="244.47" y2="229.78"/>
	<line class="st16" x1="925.61" x2="925.61" y1="244.47" y2="229.78"/>


	<path class="st5" d="m513.36 412.7c3.53-3.57 5.7-8.47 5.7-13.88 0-10.91-8.85-19.76-19.76-19.76-2.05 0-4.02 0.31-5.88 0.89v-3.42h-13.88v22.29c0 5.41 2.17 10.32 5.7 13.88v7.21l-2.99 1.89v2.65h34.1v-2.65l-2.99-1.89v-7.21z"/>
	<circle class="st17" cx="499.29" cy="399.87" r="13.44"/>
	<circle class="st17" cx="499.29" cy="399.87" r="7.92"/>
	
		<ellipse class="st18" cx="499.29" cy="396.83" rx="1.08" ry="3.05"/>
		
			<ellipse class="st18" transform="matrix(.7071 -.7071 .7071 .7071 -138.8 469.23)" cx="497.01" cy="402.17" rx="3.05" ry="1.08"/>
		
			<ellipse class="st18" transform="matrix(.7071 -.7071 .7071 .7071 -137.46 472.46)" cx="501.58" cy="402.17" rx="1.08" ry="3.05"/>
	
	<line class="st5" x1="491.66" x2="497.01" y1="401.98" y2="392.28"/>
	<line class="st5" x1="506.93" x2="501.58" y1="401.98" y2="392.28"/>

<path class="st5" d="m432.17 417.84v-130.79c0-6.96-8.62-13.34-19.25-13.34s-19.25 6.38-19.25 13.34v130.79l-5.64 6.62h49.79l-5.65-6.62z"/>
<rect class="st5" x="243.11" y="375.75" width="24.52" height="34.56"/>
<rect class="st5" x="270.81" y="417.8" width="7.4" height="6.65"/>
<rect class="st5" x="301.25" y="417.8" width="7.4" height="6.65"/>
<polygon class="st5" points="321.6 378.69 393.67 378.69 393.67 393.03 393.67 407.37 321.6 407.37 311.82 417.8 267.64 417.8 267.64 393.03 267.64 368.25 311.82 368.25"/>
<text class="st19 st3 st6" transform="matrix(0 -1 1 0 417.96 406.83)">CO2 {CO2} ppm</text>
<text class="st19 st3 st6" transform="translate(431.39 72.115)">TVOC {TVOC} ppb</text>
<text transform="translate(674.15 376.83)"><tspan class="st19 st3 st6" x="0" y="0">Temperature</tspan><tspan class="st19 st3 st6" x="20" y="16.8">{Temperature} °C</tspan></text>
<text transform="translate(866.76 318.79)"><tspan class="st19 st3 st6" x="0" y="0">Lat {Lat}</tspan><tspan class="st19 st3 st6" x="-3.32" y="16.8">Lon {Lon}</tspan></text>
<text transform="translate(622.2 123.99)"><tspan class="st19 st3 st6" x="0" y="0">Pressure</tspan><tspan class="st19 st3 st6" x="-5" y="16.8">{Pressure} hPa</tspan></text>
<text transform="translate(892.46 102.99)"><tspan class="st19 st3 st6" x="0" y="0">Hum</tspan><tspan class="st19 st3 st6" x="0" y="16.8">{Humidity}%</tspan></text>
<text class="st3 st6" transform="translate(631.41 101.35)">Filter</text>
<text class="st3 st6" transform="translate(891.09 80.348)">Filter</text>
<text class="st3 st6" transform="translate(918.9 266.08)">Granulator</text>
<text class="st3 st6" transform="translate(914.32 192.4)">Wather</text>
<polygon class="st20" points="309.7 375.92 267.64 375.92 267.64 393.03 267.64 410.14 309.7 410.14 316.5 402.93 393.67 402.93 393.67 393.03 393.67 383.13 316.5 383.13"/>
<text class="st3 st6" transform="translate(274.51 396.95)">Reactor</text>
<polygon class="st21" points="362.85 400.46 370.29 393.03 362.85 385.59"/>
<rect class="st5" x="370.29" y="389.19" width="5.34" height="35.27"/>

	
		<polyline class="st22" points="485.86 368.25 485.86 306.23 450.65 306.23"/>
		
			<polygon class="st23" points="452.4 300.25 442.04 306.23 452.4 312.22"/>
		
	


	
		<polyline class="st22" points="383.18 345.28 255.38 345.28 255.38 362.83"/>
		
			<polygon class="st23" points="255.38 371.44 261.36 361.08 249.39 361.08"/>
		
	


	
		<line class="st24" x1="920.57" x2="920.57" y1="197.37" y2="208.92"/>
		
			<polygon class="st25" points="914.58 207.17 920.57 217.53 926.55 207.17"/>
		
	


	
		<polyline class="st26" points="383.88 217.57 291.98 217.57 291.98 355.18"/>
		
			<polygon points="291.98 363.8 297.96 353.43 286 353.43"/>
		
	


	
		<polyline class="st26" points="172.98 173.04 86.69 173.04 86.69 310.22"/>
		
			<polygon points="171.23 167.06 181.59 173.04 171.23 179.02"/>
		
	


	
		<line class="st26" x1="245.19" x2="374.68" y1="173.04" y2="173.04"/>
		
			<polygon points="372.93 179.02 383.29 173.04 372.93 167.06"/>
		
	


	<rect class="st15" x="943.24" y="361.24" width="11.58" height="26.11"/>
	<polygon class="st15" points="943.24 380.77 823.59 380.77 825.81 376.96 825.81 350.8 824.04 349.47 823.96 344.2 830.8 349.45 941.89 349.45 950.46 343.5 952.04 346.35 943.24 355.79"/>
	
		<rect class="st11" x="830.67" y="353.12" width="4.04" height="22.99"/>
		<rect class="st11" x="838.6" y="353.12" width="4.04" height="22.99"/>
		<rect class="st11" x="846.54" y="353.12" width="4.04" height="22.99"/>
		<rect class="st11" x="854.48" y="353.12" width="4.04" height="22.99"/>
		<rect class="st11" x="862.41" y="353.12" width="4.04" height="22.99"/>
		<rect class="st11" x="870.35" y="353.12" width="4.04" height="22.99"/>
		<rect class="st11" x="878.28" y="353.12" width="4.04" height="22.99"/>
		<rect class="st11" x="886.22" y="353.12" width="4.04" height="22.99"/>
		<rect class="st11" x="894.16" y="353.12" width="4.04" height="22.99"/>
		<rect class="st11" x="902.09" y="353.12" width="4.04" height="22.99"/>
		<rect class="st11" x="910.03" y="353.12" width="4.04" height="22.99"/>
		<rect class="st11" x="917.97" y="353.12" width="4.04" height="22.99"/>
		<rect class="st11" x="925.9" y="353.12" width="4.04" height="22.99"/>
		<rect class="st11" x="933.84" y="353.12" width="4.04" height="22.99"/>
	
	<path class="st27" d="m954.82 387.35v-42.66h36.47s7.14 1.43 7.14 24.9 0 30.61 0 30.61l-43.61-12.85z"/>
	<polygon class="st28" points="998 371.62 988.64 370.16 988.64 347.58 993.74 347.58 995.6 351.27 997.18 357.66 998 364.77"/>
	<path class="st15" d="m979.95 344.69c0-3.99-1.72-7.22-3.85-7.22-2.12 0-3.85 3.23-3.85 7.22"/>
	<path class="st16" d="m954.82 387.35v-42.66h36.47s7.14 1.43 7.14 24.9 0 30.61 0 30.61l-43.61-12.85z"/>
	<polygon class="st28" points="964.15 366.21 957.87 365.14 957.87 347.58 964.15 347.58"/>
	<path class="st15" d="m998.43 387.94s3.81 1.47 3.81 4.64 0 8.56 0 8.56-0.42 3.91-8.62 3.91v2.17h3.44v5.97h-13.16v-4.7h-149.19v-3.38h-5.65s-2.62-0.16-2.62-4.38c0-4.58 2.56-4.61 2.56-4.61h3.38v-2.48h-2.85v-5.7h156.68v8.65h10.23l1.99-8.65z"/>
	<path class="st15" d="m966.47 344.69v42.03s19.74 6.98 19.74 9.88v-51.91h-19.74z"/>
	<polygon class="st28" points="984.03 369.63 968.65 366.76 968.65 347.58 984.03 347.58"/>
	<path class="st29" d="m832.39 393.64h-2.85v-5.7h117.34s6.52-4.93 18.01-4.93c15.7 0 21.97 11.12 21.97 13.58h6.47s0.98-8.65 5.11-8.65c0 0 3.81 1.52 3.81 4.64v8.56h-165.04l0.08-7.51-4.9 0.01z"/>
	<path class="st10" d="m835.96 407.81c0-10.12 8.2-18.32 18.32-18.32s18.32 8.2 18.32 18.32"/>
	<path class="st10" d="m872.98 407.81c0-10.12 8.2-18.32 18.32-18.32s18.32 8.2 18.32 18.32"/>
	<circle cx="854.28" cy="407.81" r="16.65"/>
	<circle cx="891.3" cy="407.81" r="16.65"/>
	<path class="st10" d="m946.56 407.81c0-10.12 8.2-18.32 18.32-18.32s18.32 8.2 18.32 18.32"/>
	<circle cx="964.88" cy="407.81" r="16.65"/>
	<circle class="st11" cx="964.88" cy="407.81" r="8.42"/>
	<circle class="st11" cx="891.3" cy="407.81" r="8.42"/>
	<circle class="st11" cx="854.28" cy="407.81" r="8.42"/>
	<polygon class="st30" points="975.08 372.35 969.48 371.15 969.45 368.94 975.04 370.14"/>
	<rect class="st16" x="839.92" y="380.77" width="7.18" height="7.18"/>
	<rect class="st16" x="890.26" y="380.77" width="4.93" height="7.18"/>
	<rect class="st16" x="933.84" y="380.77" width="4.93" height="7.18"/>
	<rect class="st15" x="951.17" y="352.67" width="3.65" height="8.56"/>

</svg>
